<svg xmlns="http://www.w3.org/2000/svg" xmlns:xlink="http://www.w3.org/1999/xlink" width="150" zoomAndPan="magnify" viewBox="0 0 112.5 60" height="80" preserveAspectRatio="xMidYMid meet" version="1.0"><defs><g/><clipPath id="cf37e1b557"><path d="M 20.542969 0.132812 L 91.792969 0.132812 L 91.792969 36.882812 L 20.542969 36.882812 Z M 20.542969 0.132812 " clip-rule="nonzero"/></clipPath></defs><g clip-path="url(#cf37e1b557)"><path fill="#141414" d="M 90.9375 23.074219 C 89.902344 21.273438 87.875 20.953125 84.511719 20.421875 C 83.707031 20.296875 82.796875 20.152344 81.8125 19.972656 C 80.765625 19.785156 77.113281 19.09375 74.179688 18.195312 C 73.953125 18.125 73.730469 18.054688 73.503906 17.980469 C 67.640625 16.050781 62.828125 12.683594 58.175781 9.429688 C 57.625 9.042969 57.050781 8.675781 56.496094 8.320312 C 55.554688 7.71875 54.582031 7.097656 53.722656 6.382812 C 53.203125 5.949219 52.742188 5.535156 52.339844 5.171875 C 51.007812 3.96875 50.035156 3.097656 48.640625 3.171875 C 48.332031 2.144531 47.605469 0.375 46.230469 0.226562 C 45.394531 0.140625 44.828125 0.683594 43.300781 2.269531 C 40.917969 4.753906 40.085938 5.648438 39.910156 6.402344 C 39.414062 8.5 40.722656 10.480469 41.582031 11.503906 C 39.429688 12.699219 36.417969 13.046875 34.496094 12.078125 C 33.347656 11.5 32.746094 10.550781 32.109375 9.550781 C 31.320312 8.304688 30.421875 6.890625 28.371094 6.273438 C 27.863281 6.121094 26.3125 5.652344 25.171875 6.488281 C 24.308594 7.121094 24.179688 8.109375 24.03125 9.257812 C 23.996094 9.515625 23.960938 9.785156 23.917969 10.066406 C 23.84375 10.507812 23.761719 10.890625 23.664062 11.234375 C 23.527344 11.722656 23.367188 12.09375 23.164062 12.566406 C 22.921875 13.136719 22.621094 13.84375 22.265625 14.984375 C 21.597656 17.15625 20.585938 20.433594 20.933594 23.753906 C 21.054688 24.921875 21.339844 26.03125 21.773438 27.046875 C 22.164062 27.953125 22.683594 28.808594 23.316406 29.597656 C 22.867188 30.078125 22.511719 30.632812 22.28125 31.226562 C 21.785156 32.5 21.699219 34.3125 22.617188 35.503906 C 23.570312 36.730469 25.253906 36.894531 26.304688 36.894531 C 26.539062 36.894531 26.742188 36.886719 26.898438 36.882812 L 26.945312 36.878906 C 34.230469 36.589844 41.660156 36.675781 48.84375 36.753906 C 50.628906 36.773438 52.414062 36.796875 54.195312 36.808594 C 55.820312 36.824219 57.472656 36.832031 59.140625 36.832031 C 65.167969 36.832031 71.4375 36.710938 77.648438 36.238281 L 77.738281 36.230469 C 79.316406 36.109375 84.113281 35.746094 87.863281 32.507812 C 88.652344 31.828125 90.753906 30.011719 91.285156 27.019531 C 91.457031 26.066406 91.738281 24.476562 90.9375 23.074219 Z M 41.03125 6.664062 C 41.144531 6.179688 42.398438 4.875 44.132812 3.066406 C 45.4375 1.710938 45.863281 1.347656 46.109375 1.371094 C 46.648438 1.429688 47.195312 2.40625 47.519531 3.4375 C 46.765625 3.761719 46.214844 4.300781 45.894531 4.621094 C 44.777344 5.722656 44.515625 6.847656 44.289062 7.839844 C 44.15625 8.421875 44.027344 8.972656 43.742188 9.496094 C 43.660156 9.640625 43.566406 9.785156 43.457031 9.929688 C 43.207031 10.265625 42.898438 10.578125 42.546875 10.859375 C 41.828125 10.03125 40.632812 8.34375 41.03125 6.664062 Z M 23.367188 15.324219 C 23.703125 14.242188 23.980469 13.589844 24.222656 13.019531 C 24.371094 12.667969 24.507812 12.355469 24.628906 12 C 25.636719 12.113281 26.511719 12.425781 27.234375 12.933594 C 28.960938 14.152344 29.394531 16.230469 29.996094 19.105469 L 30.082031 19.503906 C 30.371094 20.878906 30.679688 22.28125 31.007812 23.691406 L 30.964844 23.683594 C 28.007812 23.34375 25.007812 23.15625 22.039062 23.125 C 21.859375 20.21875 22.722656 17.40625 23.367188 15.324219 Z M 22.832031 26.59375 C 22.523438 25.871094 22.300781 25.09375 22.167969 24.277344 C 25.050781 24.3125 27.964844 24.496094 30.835938 24.828125 L 31.6875 24.925781 C 39.199219 25.796875 43.792969 26.460938 47.894531 29.492188 C 42.71875 29.417969 37.867188 29.339844 33.121094 29.25 C 30.152344 29.195312 27.210938 29.132812 24.371094 29.070312 C 23.730469 28.308594 23.210938 27.480469 22.832031 26.59375 Z M 90.152344 26.816406 C 89.691406 29.410156 87.816406 31.03125 87.109375 31.640625 C 83.648438 34.628906 79.136719 34.972656 77.652344 35.082031 L 77.5625 35.089844 C 69.671875 35.695312 61.671875 35.722656 54.203125 35.660156 C 52.421875 35.644531 50.640625 35.625 48.859375 35.605469 C 41.660156 35.523438 34.214844 35.441406 26.898438 35.730469 L 26.851562 35.730469 C 26.164062 35.761719 24.328125 35.835938 23.527344 34.800781 C 22.886719 33.96875 22.988281 32.582031 23.351562 31.640625 C 23.558594 31.113281 23.890625 30.625 24.316406 30.21875 C 27.167969 30.28125 30.121094 30.34375 33.097656 30.398438 C 38.351562 30.5 43.730469 30.585938 49.535156 30.664062 C 54.363281 30.726562 58.734375 30.777344 62.589844 30.820312 C 67.492188 30.878906 71.730469 30.925781 74.90625 30.984375 C 75.1875 30.988281 75.507812 30.988281 75.859375 30.988281 C 77.695312 30.988281 80.390625 30.898438 82.863281 30.183594 C 84.84375 29.609375 86.738281 28.617188 88.496094 27.230469 C 88.742188 27.035156 88.785156 26.675781 88.589844 26.425781 C 88.390625 26.175781 88.03125 26.132812 87.78125 26.332031 C 86.140625 27.625 84.378906 28.546875 82.542969 29.078125 C 79.761719 29.882812 76.609375 29.851562 74.921875 29.832031 C 71.746094 29.773438 67.507812 29.726562 62.601562 29.671875 C 58.804688 29.628906 54.503906 29.578125 49.761719 29.515625 C 49.585938 29.363281 49.40625 29.210938 49.226562 29.0625 C 44.804688 25.5 39.851562 24.722656 32.222656 23.832031 C 31.863281 22.296875 31.523438 20.761719 31.207031 19.265625 L 31.125 18.871094 C 30.492188 15.855469 29.992188 13.472656 27.894531 11.996094 C 27.058594 11.402344 26.0625 11.03125 24.933594 10.882812 C 24.976562 10.683594 25.015625 10.472656 25.054688 10.246094 C 25.101562 9.949219 25.136719 9.671875 25.171875 9.40625 C 25.308594 8.351562 25.410156 7.742188 25.851562 7.414062 C 26.300781 7.085938 27.039062 7.070312 28.039062 7.375 C 29.679688 7.871094 30.355469 8.933594 31.136719 10.164062 C 31.828125 11.253906 32.542969 12.382812 33.976562 13.105469 C 34.921875 13.582031 36.046875 13.800781 37.21875 13.800781 C 39.941406 13.800781 42.90625 12.601562 44.382812 10.617188 C 44.523438 10.429688 44.644531 10.238281 44.75 10.050781 C 45.113281 9.386719 45.265625 8.730469 45.410156 8.097656 C 45.621094 7.175781 45.824219 6.304688 46.703125 5.4375 C 47.066406 5.082031 47.613281 4.539062 48.347656 4.367188 C 48.449219 4.34375 48.550781 4.328125 48.652344 4.320312 C 49.554688 4.253906 50.234375 4.824219 51.570312 6.027344 C 51.980469 6.398438 52.449219 6.820312 52.988281 7.265625 C 53.441406 7.644531 53.917969 7.992188 54.398438 8.324219 L 50.777344 9.734375 C 50.480469 9.847656 50.332031 10.179688 50.449219 10.476562 C 50.535156 10.703125 50.753906 10.84375 50.984375 10.84375 C 51.054688 10.84375 51.125 10.832031 51.195312 10.804688 L 55.578125 9.097656 C 55.675781 9.164062 55.777344 9.226562 55.875 9.289062 C 56.417969 9.636719 56.984375 10 57.515625 10.371094 C 57.617188 10.445312 57.722656 10.515625 57.824219 10.589844 L 54.257812 11.976562 C 53.964844 12.089844 53.816406 12.425781 53.933594 12.71875 C 54.019531 12.949219 54.238281 13.085938 54.46875 13.085938 C 54.539062 13.085938 54.609375 13.074219 54.675781 13.046875 L 58.960938 11.378906 C 59.75 11.925781 60.546875 12.472656 61.351562 13.011719 L 57.65625 14.449219 C 57.359375 14.566406 57.214844 14.898438 57.328125 15.195312 C 57.417969 15.421875 57.636719 15.5625 57.867188 15.5625 C 57.9375 15.5625 58.007812 15.546875 58.074219 15.519531 L 62.507812 13.796875 C 62.515625 13.792969 62.523438 13.789062 62.53125 13.785156 C 63.421875 14.359375 64.332031 14.925781 65.265625 15.464844 L 61.515625 16.921875 C 61.21875 17.039062 61.074219 17.371094 61.1875 17.667969 C 61.277344 17.894531 61.492188 18.035156 61.722656 18.035156 C 61.792969 18.035156 61.863281 18.019531 61.933594 17.996094 L 66.367188 16.269531 C 66.425781 16.246094 66.480469 16.210938 66.527344 16.171875 C 68.28125 17.125 70.117188 17.984375 72.074219 18.699219 C 68.046875 21.472656 63.089844 24.117188 60.550781 22.546875 C 59.910156 22.148438 59.507812 21.546875 59.003906 20.78125 C 58.277344 19.683594 57.375 18.316406 55.339844 16.839844 C 54.546875 16.265625 53.351562 15.621094 51.183594 14.449219 C 49.410156 13.488281 47.609375 12.550781 45.832031 11.660156 C 45.546875 11.515625 45.203125 11.628906 45.058594 11.914062 C 44.917969 12.199219 45.03125 12.542969 45.316406 12.6875 C 47.082031 13.574219 48.871094 14.503906 50.636719 15.460938 C 52.921875 16.695312 53.960938 17.261719 54.664062 17.769531 C 56.527344 19.125 57.332031 20.339844 58.042969 21.414062 C 58.605469 22.261719 59.085938 22.992188 59.941406 23.523438 C 60.644531 23.957031 61.46875 24.175781 62.425781 24.175781 C 65.066406 24.175781 68.699219 22.511719 73.421875 19.160156 C 73.5625 19.207031 73.703125 19.25 73.84375 19.292969 C 76.835938 20.210938 80.542969 20.910156 81.609375 21.105469 C 82.605469 21.285156 83.523438 21.429688 84.332031 21.558594 C 87.457031 22.050781 89.179688 22.320312 89.9375 23.644531 C 90.53125 24.683594 90.3125 25.917969 90.152344 26.816406 Z M 90.152344 26.816406 " fill-opacity="1" fill-rule="nonzero"/><path fill="#141414" d="M 90.9375 23.074219 C 89.902344 21.273438 87.875 20.953125 84.511719 20.421875 C 83.707031 20.296875 82.796875 20.152344 81.8125 19.972656 C 80.765625 19.785156 77.113281 19.09375 74.179688 18.195312 C 73.953125 18.125 73.730469 18.054688 73.503906 17.980469 C 67.640625 16.050781 62.828125 12.683594 58.175781 9.429688 C 57.625 9.042969 57.050781 8.675781 56.496094 8.320312 C 55.554688 7.71875 54.582031 7.097656 53.722656 6.382812 C 53.203125 5.949219 52.742188 5.535156 52.339844 5.171875 C 51.007812 3.96875 50.035156 3.097656 48.640625 3.171875 C 48.332031 2.144531 47.605469 0.375 46.230469 0.226562 C 45.394531 0.140625 44.828125 0.683594 43.300781 2.269531 C 40.917969 4.753906 40.085938 5.648438 39.910156 6.402344 C 39.414062 8.5 40.722656 10.480469 41.582031 11.503906 C 39.429688 12.699219 36.417969 13.046875 34.496094 12.078125 C 33.347656 11.5 32.746094 10.550781 32.109375 9.550781 C 31.320312 8.304688 30.421875 6.890625 28.371094 6.273438 C 27.863281 6.121094 26.3125 5.652344 25.171875 6.488281 C 24.308594 7.121094 24.179688 8.109375 24.03125 9.257812 C 23.996094 9.515625 23.960938 9.785156 23.917969 10.066406 C 23.84375 10.507812 23.761719 10.890625 23.664062 11.234375 C 23.527344 11.722656 23.367188 12.09375 23.164062 12.566406 C 22.921875 13.136719 22.621094 13.84375 22.265625 14.984375 C 21.597656 17.15625 20.585938 20.433594 20.933594 23.753906 C 21.054688 24.921875 21.339844 26.03125 21.773438 27.046875 C 22.164062 27.953125 22.683594 28.808594 23.316406 29.597656 C 22.867188 30.078125 22.511719 30.632812 22.28125 31.226562 C 21.785156 32.5 21.699219 34.3125 22.617188 35.503906 C 23.570312 36.730469 25.253906 36.894531 26.304688 36.894531 C 26.539062 36.894531 26.742188 36.886719 26.898438 36.882812 L 26.945312 36.878906 C 34.230469 36.589844 41.660156 36.675781 48.84375 36.753906 C 50.628906 36.773438 52.414062 36.796875 54.195312 36.808594 C 55.820312 36.824219 57.472656 36.832031 59.140625 36.832031 C 65.167969 36.832031 71.4375 36.710938 77.648438 36.238281 L 77.738281 36.230469 C 79.316406 36.109375 84.113281 35.746094 87.863281 32.507812 C 88.652344 31.828125 90.753906 30.011719 91.285156 27.019531 C 91.457031 26.066406 91.738281 24.476562 90.9375 23.074219 Z M 41.03125 6.664062 C 41.144531 6.179688 42.398438 4.875 44.132812 3.066406 C 45.4375 1.710938 45.863281 1.347656 46.109375 1.371094 C 46.648438 1.429688 47.195312 2.40625 47.519531 3.4375 C 46.765625 3.761719 46.214844 4.300781 45.894531 4.621094 C 44.777344 5.722656 44.515625 6.847656 44.289062 7.839844 C 44.15625 8.421875 44.027344 8.972656 43.742188 9.496094 C 43.660156 9.640625 43.566406 9.785156 43.457031 9.929688 C 43.207031 10.265625 42.898438 10.578125 42.546875 10.859375 C 41.828125 10.03125 40.632812 8.34375 41.03125 6.664062 Z M 23.367188 15.324219 C 23.703125 14.242188 23.980469 13.589844 24.222656 13.019531 C 24.371094 12.667969 24.507812 12.355469 24.628906 12 C 25.636719 12.113281 26.511719 12.425781 27.234375 12.933594 C 28.960938 14.152344 29.394531 16.230469 29.996094 19.105469 L 30.082031 19.503906 C 30.371094 20.878906 30.679688 22.28125 31.007812 23.691406 L 30.964844 23.683594 C 28.007812 23.34375 25.007812 23.15625 22.039062 23.125 C 21.859375 20.21875 22.722656 17.40625 23.367188 15.324219 Z M 22.832031 26.59375 C 22.523438 25.871094 22.300781 25.09375 22.167969 24.277344 C 25.050781 24.3125 27.964844 24.496094 30.835938 24.828125 L 31.6875 24.925781 C 39.199219 25.796875 43.792969 26.460938 47.894531 29.492188 C 42.71875 29.417969 37.867188 29.339844 33.121094 29.25 C 30.152344 29.195312 27.210938 29.132812 24.371094 29.070312 C 23.730469 28.308594 23.210938 27.480469 22.832031 26.59375 Z M 90.152344 26.816406 C 89.691406 29.410156 87.816406 31.03125 87.109375 31.640625 C 83.648438 34.628906 79.136719 34.972656 77.652344 35.082031 L 77.5625 35.089844 C 69.671875 35.695312 61.671875 35.722656 54.203125 35.660156 C 52.421875 35.644531 50.640625 35.625 48.859375 35.605469 C 41.660156 35.523438 34.214844 35.441406 26.898438 35.730469 L 26.851562 35.730469 C 26.164062 35.761719 24.328125 35.835938 23.527344 34.800781 C 22.886719 33.96875 22.988281 32.582031 23.351562 31.640625 C 23.558594 31.113281 23.890625 30.625 24.316406 30.21875 C 27.167969 30.28125 30.121094 30.34375 33.097656 30.398438 C 38.351562 30.5 43.730469 30.585938 49.535156 30.664062 C 54.363281 30.726562 58.734375 30.777344 62.589844 30.820312 C 67.492188 30.878906 71.730469 30.925781 74.90625 30.984375 C 75.1875 30.988281 75.507812 30.988281 75.859375 30.988281 C 77.695312 30.988281 80.390625 30.898438 82.863281 30.183594 C 84.84375 29.609375 86.738281 28.617188 88.496094 27.230469 C 88.742188 27.035156 88.785156 26.675781 88.589844 26.425781 C 88.390625 26.175781 88.03125 26.132812 87.78125 26.332031 C 86.140625 27.625 84.378906 28.546875 82.542969 29.078125 C 79.761719 29.882812 76.609375 29.851562 74.921875 29.832031 C 71.746094 29.773438 67.507812 29.726562 62.601562 29.671875 C 58.804688 29.628906 54.503906 29.578125 49.761719 29.515625 C 49.585938 29.363281 49.40625 29.210938 49.226562 29.0625 C 44.804688 25.5 39.851562 24.722656 32.222656 23.832031 C 31.863281 22.296875 31.523438 20.761719 31.207031 19.265625 L 31.125 18.871094 C 30.492188 15.855469 29.992188 13.472656 27.894531 11.996094 C 27.058594 11.402344 26.0625 11.03125 24.933594 10.882812 C 24.976562 10.683594 25.015625 10.472656 25.054688 10.246094 C 25.101562 9.949219 25.136719 9.671875 25.171875 9.40625 C 25.308594 8.351562 25.410156 7.742188 25.851562 7.414062 C 26.300781 7.085938 27.039062 7.070312 28.039062 7.375 C 29.679688 7.871094 30.355469 8.933594 31.136719 10.164062 C 31.828125 11.253906 32.542969 12.382812 33.976562 13.105469 C 34.921875 13.582031 36.046875 13.800781 37.21875 13.800781 C 39.941406 13.800781 42.90625 12.601562 44.382812 10.617188 C 44.523438 10.429688 44.644531 10.238281 44.75 10.050781 C 45.113281 9.386719 45.265625 8.730469 45.410156 8.097656 C 45.621094 7.175781 45.824219 6.304688 46.703125 5.4375 C 47.066406 5.082031 47.613281 4.539062 48.347656 4.367188 C 48.449219 4.34375 48.550781 4.328125 48.652344 4.320312 C 49.554688 4.253906 50.234375 4.824219 51.570312 6.027344 C 51.980469 6.398438 52.449219 6.820312 52.988281 7.265625 C 53.441406 7.644531 53.917969 7.992188 54.398438 8.324219 L 50.777344 9.734375 C 50.480469 9.847656 50.332031 10.179688 50.449219 10.476562 C 50.535156 10.703125 50.753906 10.84375 50.984375 10.84375 C 51.054688 10.84375 51.125 10.832031 51.195312 10.804688 L 55.578125 9.097656 C 55.675781 9.164062 55.777344 9.226562 55.875 9.289062 C 56.417969 9.636719 56.984375 10 57.515625 10.371094 C 57.617188 10.445312 57.722656 10.515625 57.824219 10.589844 L 54.257812 11.976562 C 53.964844 12.089844 53.816406 12.425781 53.933594 12.71875 C 54.019531 12.949219 54.238281 13.085938 54.46875 13.085938 C 54.539062 13.085938 54.609375 13.074219 54.675781 13.046875 L 58.960938 11.378906 C 59.75 11.925781 60.546875 12.472656 61.351562 13.011719 L 57.65625 14.449219 C 57.359375 14.566406 57.214844 14.898438 57.328125 15.195312 C 57.417969 15.421875 57.636719 15.5625 57.867188 15.5625 C 57.9375 15.5625 58.007812 15.546875 58.074219 15.519531 L 62.507812 13.796875 C 62.515625 13.792969 62.523438 13.789062 62.53125 13.785156 C 63.421875 14.359375 64.332031 14.925781 65.265625 15.464844 L 61.515625 16.921875 C 61.21875 17.039062 61.074219 17.371094 61.1875 17.667969 C 61.277344 17.894531 61.492188 18.035156 61.722656 18.035156 C 61.792969 18.035156 61.863281 18.019531 61.933594 17.996094 L 66.367188 16.269531 C 66.425781 16.246094 66.480469 16.210938 66.527344 16.171875 C 68.28125 17.125 70.117188 17.984375 72.074219 18.699219 C 68.046875 21.472656 63.089844 24.117188 60.550781 22.546875 C 59.910156 22.148438 59.507812 21.546875 59.003906 20.78125 C 58.277344 19.683594 57.375 18.316406 55.339844 16.839844 C 54.546875 16.265625 53.351562 15.621094 51.183594 14.449219 C 49.410156 13.488281 47.609375 12.550781 45.832031 11.660156 C 45.546875 11.515625 45.203125 11.628906 45.058594 11.914062 C 44.917969 12.199219 45.03125 12.542969 45.316406 12.6875 C 47.082031 13.574219 48.871094 14.503906 50.636719 15.460938 C 52.921875 16.695312 53.960938 17.261719 54.664062 17.769531 C 56.527344 19.125 57.332031 20.339844 58.042969 21.414062 C 58.605469 22.261719 59.085938 22.992188 59.941406 23.523438 C 60.644531 23.957031 61.46875 24.175781 62.425781 24.175781 C 65.066406 24.175781 68.699219 22.511719 73.421875 19.160156 C 73.5625 19.207031 73.703125 19.25 73.84375 19.292969 C 76.835938 20.210938 80.542969 20.910156 81.609375 21.105469 C 82.605469 21.285156 83.523438 21.429688 84.332031 21.558594 C 87.457031 22.050781 89.179688 22.320312 89.9375 23.644531 C 90.53125 24.683594 90.3125 25.917969 90.152344 26.816406 Z M 90.152344 26.816406 " fill-opacity="1" fill-rule="nonzero"/></g><g fill="#141414" fill-opacity="1"><g transform="translate(0.0122924, 55.970907)"><g><path d="M 4.796875 0.109375 C 4.015625 0.109375 3.316406 -0.015625 2.703125 -0.265625 C 2.085938 -0.523438 1.59375 -0.898438 1.21875 -1.390625 C 0.851562 -1.890625 0.660156 -2.488281 0.640625 -3.1875 L 3.40625 -3.1875 C 3.4375 -2.789062 3.566406 -2.488281 3.796875 -2.28125 C 4.035156 -2.070312 4.34375 -1.96875 4.71875 -1.96875 C 5.101562 -1.96875 5.40625 -2.054688 5.625 -2.234375 C 5.851562 -2.410156 5.96875 -2.65625 5.96875 -2.96875 C 5.96875 -3.238281 5.878906 -3.457031 5.703125 -3.625 C 5.523438 -3.800781 5.304688 -3.941406 5.046875 -4.046875 C 4.785156 -4.160156 4.414062 -4.289062 3.9375 -4.4375 C 3.25 -4.644531 2.6875 -4.851562 2.25 -5.0625 C 1.820312 -5.28125 1.453125 -5.59375 1.140625 -6 C 0.828125 -6.414062 0.671875 -6.957031 0.671875 -7.625 C 0.671875 -8.625 1.03125 -9.398438 1.75 -9.953125 C 2.46875 -10.515625 3.398438 -10.796875 4.546875 -10.796875 C 5.722656 -10.796875 6.671875 -10.515625 7.390625 -9.953125 C 8.109375 -9.398438 8.492188 -8.617188 8.546875 -7.609375 L 5.734375 -7.609375 C 5.710938 -7.953125 5.582031 -8.222656 5.34375 -8.421875 C 5.113281 -8.617188 4.816406 -8.71875 4.453125 -8.71875 C 4.140625 -8.71875 3.882812 -8.632812 3.6875 -8.46875 C 3.5 -8.300781 3.40625 -8.0625 3.40625 -7.75 C 3.40625 -7.40625 3.566406 -7.132812 3.890625 -6.9375 C 4.222656 -6.75 4.734375 -6.546875 5.421875 -6.328125 C 6.109375 -6.097656 6.664062 -5.875 7.09375 -5.65625 C 7.519531 -5.445312 7.890625 -5.140625 8.203125 -4.734375 C 8.515625 -4.328125 8.671875 -3.804688 8.671875 -3.171875 C 8.671875 -2.566406 8.515625 -2.015625 8.203125 -1.515625 C 7.898438 -1.023438 7.457031 -0.628906 6.875 -0.328125 C 6.289062 -0.0351562 5.597656 0.109375 4.796875 0.109375 Z M 4.796875 0.109375 "/></g></g></g><g fill="#141414" fill-opacity="1"><g transform="translate(9.341122, 55.970907)"><g><path d="M 10.171875 -10.65625 L 10.171875 0 L 7.578125 0 L 7.578125 -4.390625 L 3.53125 -4.390625 L 3.53125 0 L 0.9375 0 L 0.9375 -10.65625 L 3.53125 -10.65625 L 3.53125 -6.484375 L 7.578125 -6.484375 L 7.578125 -10.65625 Z M 10.171875 -10.65625 "/></g></g></g><g fill="#141414" fill-opacity="1"><g transform="translate(20.429534, 55.970907)"><g><path d="M 5.984375 0.109375 C 4.972656 0.109375 4.050781 -0.125 3.21875 -0.59375 C 2.382812 -1.0625 1.722656 -1.710938 1.234375 -2.546875 C 0.742188 -3.378906 0.5 -4.316406 0.5 -5.359375 C 0.5 -6.398438 0.742188 -7.332031 1.234375 -8.15625 C 1.722656 -8.988281 2.382812 -9.632812 3.21875 -10.09375 C 4.050781 -10.5625 4.972656 -10.796875 5.984375 -10.796875 C 6.984375 -10.796875 7.898438 -10.5625 8.734375 -10.09375 C 9.566406 -9.632812 10.222656 -8.988281 10.703125 -8.15625 C 11.179688 -7.332031 11.421875 -6.398438 11.421875 -5.359375 C 11.421875 -4.316406 11.175781 -3.378906 10.6875 -2.546875 C 10.207031 -1.710938 9.550781 -1.0625 8.71875 -0.59375 C 7.894531 -0.125 6.984375 0.109375 5.984375 0.109375 Z M 5.984375 -2.265625 C 6.828125 -2.265625 7.503906 -2.546875 8.015625 -3.109375 C 8.523438 -3.671875 8.78125 -4.421875 8.78125 -5.359375 C 8.78125 -6.296875 8.523438 -7.046875 8.015625 -7.609375 C 7.503906 -8.171875 6.828125 -8.453125 5.984375 -8.453125 C 5.117188 -8.453125 4.429688 -8.171875 3.921875 -7.609375 C 3.410156 -7.054688 3.15625 -6.304688 3.15625 -5.359375 C 3.15625 -4.410156 3.410156 -3.65625 3.921875 -3.09375 C 4.429688 -2.539062 5.117188 -2.265625 5.984375 -2.265625 Z M 5.984375 -2.265625 "/></g></g></g><g fill="#141414" fill-opacity="1"><g transform="translate(32.352232, 55.970907)"><g><path d="M 3.53125 -8.578125 L 3.53125 -6.421875 L 7.015625 -6.421875 L 7.015625 -4.421875 L 3.53125 -4.421875 L 3.53125 -2.078125 L 7.46875 -2.078125 L 7.46875 0 L 0.9375 0 L 0.9375 -10.65625 L 7.46875 -10.65625 L 7.46875 -8.578125 Z M 3.53125 -8.578125 "/></g></g></g><g fill="#141414" fill-opacity="1"><g transform="translate(40.55857, 55.970907)"><g><path d="M 2.75 -12.140625 L 2.546875 -8.78125 L 0.796875 -8.78125 L 0.609375 -12.140625 Z M 2.75 -12.140625 "/></g></g></g><g fill="#141414" fill-opacity="1"><g transform="translate(43.910882, 55.970907)"><g><path d="M 4.796875 0.109375 C 4.015625 0.109375 3.316406 -0.015625 2.703125 -0.265625 C 2.085938 -0.523438 1.59375 -0.898438 1.21875 -1.390625 C 0.851562 -1.890625 0.660156 -2.488281 0.640625 -3.1875 L 3.40625 -3.1875 C 3.4375 -2.789062 3.566406 -2.488281 3.796875 -2.28125 C 4.035156 -2.070312 4.34375 -1.96875 4.71875 -1.96875 C 5.101562 -1.96875 5.40625 -2.054688 5.625 -2.234375 C 5.851562 -2.410156 5.96875 -2.65625 5.96875 -2.96875 C 5.96875 -3.238281 5.878906 -3.457031 5.703125 -3.625 C 5.523438 -3.800781 5.304688 -3.941406 5.046875 -4.046875 C 4.785156 -4.160156 4.414062 -4.289062 3.9375 -4.4375 C 3.25 -4.644531 2.6875 -4.851562 2.25 -5.0625 C 1.820312 -5.28125 1.453125 -5.59375 1.140625 -6 C 0.828125 -6.414062 0.671875 -6.957031 0.671875 -7.625 C 0.671875 -8.625 1.03125 -9.398438 1.75 -9.953125 C 2.46875 -10.515625 3.398438 -10.796875 4.546875 -10.796875 C 5.722656 -10.796875 6.671875 -10.515625 7.390625 -9.953125 C 8.109375 -9.398438 8.492188 -8.617188 8.546875 -7.609375 L 5.734375 -7.609375 C 5.710938 -7.953125 5.582031 -8.222656 5.34375 -8.421875 C 5.113281 -8.617188 4.816406 -8.71875 4.453125 -8.71875 C 4.140625 -8.71875 3.882812 -8.632812 3.6875 -8.46875 C 3.5 -8.300781 3.40625 -8.0625 3.40625 -7.75 C 3.40625 -7.40625 3.566406 -7.132812 3.890625 -6.9375 C 4.222656 -6.75 4.734375 -6.546875 5.421875 -6.328125 C 6.109375 -6.097656 6.664062 -5.875 7.09375 -5.65625 C 7.519531 -5.445312 7.890625 -5.140625 8.203125 -4.734375 C 8.515625 -4.328125 8.671875 -3.804688 8.671875 -3.171875 C 8.671875 -2.566406 8.515625 -2.015625 8.203125 -1.515625 C 7.898438 -1.023438 7.457031 -0.628906 6.875 -0.328125 C 6.289062 -0.0351562 5.597656 0.109375 4.796875 0.109375 Z M 4.796875 0.109375 "/></g></g></g><g fill="#141414" fill-opacity="1"><g transform="translate(53.239711, 55.970907)"><g/></g></g><g fill="#141414" fill-opacity="1"><g transform="translate(56.455505, 55.970907)"><g><path d="M 15.59375 -10.65625 L 12.8125 0 L 9.671875 0 L 7.984375 -7.015625 L 6.21875 0 L 3.078125 0 L 0.375 -10.65625 L 3.15625 -10.65625 L 4.6875 -2.890625 L 6.578125 -10.65625 L 9.4375 -10.65625 L 11.25 -2.890625 L 12.8125 -10.65625 Z M 15.59375 -10.65625 "/></g></g></g><g fill="#141414" fill-opacity="1"><g transform="translate(72.413116, 55.970907)"><g><path d="M 5.984375 0.109375 C 4.972656 0.109375 4.050781 -0.125 3.21875 -0.59375 C 2.382812 -1.0625 1.722656 -1.710938 1.234375 -2.546875 C 0.742188 -3.378906 0.5 -4.316406 0.5 -5.359375 C 0.5 -6.398438 0.742188 -7.332031 1.234375 -8.15625 C 1.722656 -8.988281 2.382812 -9.632812 3.21875 -10.09375 C 4.050781 -10.5625 4.972656 -10.796875 5.984375 -10.796875 C 6.984375 -10.796875 7.898438 -10.5625 8.734375 -10.09375 C 9.566406 -9.632812 10.222656 -8.988281 10.703125 -8.15625 C 11.179688 -7.332031 11.421875 -6.398438 11.421875 -5.359375 C 11.421875 -4.316406 11.175781 -3.378906 10.6875 -2.546875 C 10.207031 -1.710938 9.550781 -1.0625 8.71875 -0.59375 C 7.894531 -0.125 6.984375 0.109375 5.984375 0.109375 Z M 5.984375 -2.265625 C 6.828125 -2.265625 7.503906 -2.546875 8.015625 -3.109375 C 8.523438 -3.671875 8.78125 -4.421875 8.78125 -5.359375 C 8.78125 -6.296875 8.523438 -7.046875 8.015625 -7.609375 C 7.503906 -8.171875 6.828125 -8.453125 5.984375 -8.453125 C 5.117188 -8.453125 4.429688 -8.171875 3.921875 -7.609375 C 3.410156 -7.054688 3.15625 -6.304688 3.15625 -5.359375 C 3.15625 -4.410156 3.410156 -3.65625 3.921875 -3.09375 C 4.429688 -2.539062 5.117188 -2.265625 5.984375 -2.265625 Z M 5.984375 -2.265625 "/></g></g></g><g fill="#141414" fill-opacity="1"><g transform="translate(84.335814, 55.970907)"><g><path d="M 6.375 0 L 4.15625 -4.015625 L 3.53125 -4.015625 L 3.53125 0 L 0.9375 0 L 0.9375 -10.65625 L 5.296875 -10.65625 C 6.128906 -10.65625 6.84375 -10.503906 7.4375 -10.203125 C 8.03125 -9.910156 8.472656 -9.507812 8.765625 -9 C 9.054688 -8.488281 9.203125 -7.921875 9.203125 -7.296875 C 9.203125 -6.585938 9.003906 -5.953125 8.609375 -5.390625 C 8.210938 -4.835938 7.625 -4.445312 6.84375 -4.21875 L 9.296875 0 Z M 3.53125 -5.859375 L 5.140625 -5.859375 C 5.617188 -5.859375 5.972656 -5.972656 6.203125 -6.203125 C 6.441406 -6.429688 6.5625 -6.757812 6.5625 -7.1875 C 6.5625 -7.59375 6.441406 -7.910156 6.203125 -8.140625 C 5.972656 -8.378906 5.617188 -8.5 5.140625 -8.5 L 3.53125 -8.5 Z M 3.53125 -5.859375 "/></g></g></g><g fill="#141414" fill-opacity="1"><g transform="translate(94.225892, 55.970907)"><g><path d="M 3.53125 -2 L 6.9375 -2 L 6.9375 0 L 0.9375 0 L 0.9375 -10.65625 L 3.53125 -10.65625 Z M 3.53125 -2 "/></g></g></g><g fill="#141414" fill-opacity="1"><g transform="translate(101.461425, 55.970907)"><g><path d="M 4.9375 -10.65625 C 6.050781 -10.65625 7.03125 -10.429688 7.875 -9.984375 C 8.71875 -9.535156 9.367188 -8.910156 9.828125 -8.109375 C 10.285156 -7.304688 10.515625 -6.378906 10.515625 -5.328125 C 10.515625 -4.285156 10.285156 -3.359375 9.828125 -2.546875 C 9.367188 -1.734375 8.710938 -1.101562 7.859375 -0.65625 C 7.015625 -0.21875 6.039062 0 4.9375 0 L 0.9375 0 L 0.9375 -10.65625 Z M 4.765625 -2.25 C 5.742188 -2.25 6.503906 -2.515625 7.046875 -3.046875 C 7.597656 -3.585938 7.875 -4.347656 7.875 -5.328125 C 7.875 -6.304688 7.597656 -7.066406 7.046875 -7.609375 C 6.503906 -8.160156 5.742188 -8.4375 4.765625 -8.4375 L 3.53125 -8.4375 L 3.53125 -2.25 Z M 4.765625 -2.25 "/></g></g></g></svg>